<svg width="90" height="100" viewBox="0 0 90 100" fill="none" xmlns="http://www.w3.org/2000/svg">
<path d="M21.1947 95V90.32L21.5007 91.148L16.1547 82.4H17.5767L22.2747 90.086H21.5187L26.2167 82.4H27.5487L22.2027 91.148L22.5087 90.32V95H21.1947ZM32.2862 95.09C31.3022 95.09 30.4382 94.886 29.6942 94.478C28.9502 94.058 28.3682 93.488 27.9482 92.768C27.5282 92.036 27.3182 91.202 27.3182 90.266C27.3182 89.33 27.5162 88.502 27.9122 87.782C28.3202 87.062 28.8722 86.498 29.5682 86.09C30.2762 85.67 31.0682 85.46 31.9442 85.46C32.8322 85.46 33.6182 85.664 34.3022 86.072C34.9982 86.468 35.5442 87.032 35.9402 87.764C36.3362 88.484 36.5342 89.318 36.5342 90.266C36.5342 90.326 36.5282 90.392 36.5162 90.464C36.5162 90.524 36.5162 90.59 36.5162 90.662H28.2902V89.708H35.8322L35.3282 90.086C35.3282 89.402 35.1782 88.796 34.8782 88.268C34.5902 87.728 34.1942 87.308 33.6902 87.008C33.1862 86.708 32.6042 86.558 31.9442 86.558C31.2962 86.558 30.7142 86.708 30.1982 87.008C29.6822 87.308 29.2802 87.728 28.9922 88.268C28.7042 88.808 28.5602 89.426 28.5602 90.122V90.32C28.5602 91.04 28.7162 91.676 29.0282 92.228C29.3522 92.768 29.7962 93.194 30.3602 93.506C30.9362 93.806 31.5902 93.956 32.3222 93.956C32.8982 93.956 33.4322 93.854 33.9242 93.65C34.4282 93.446 34.8602 93.134 35.2202 92.714L35.9402 93.542C35.5202 94.046 34.9922 94.43 34.3562 94.694C33.7322 94.958 33.0422 95.09 32.2862 95.09ZM39.1355 95V81.644H40.4135V95H39.1355ZM43.9695 95V81.644H45.2475V95H43.9695ZM52.6555 95.09C51.7435 95.09 50.9215 94.886 50.1895 94.478C49.4695 94.058 48.8995 93.488 48.4795 92.768C48.0595 92.036 47.8495 91.202 47.8495 90.266C47.8495 89.318 48.0595 88.484 48.4795 87.764C48.8995 87.044 49.4695 86.48 50.1895 86.072C50.9095 85.664 51.7315 85.46 52.6555 85.46C53.5915 85.46 54.4195 85.664 55.1395 86.072C55.8715 86.48 56.4415 87.044 56.8495 87.764C57.2695 88.484 57.4795 89.318 57.4795 90.266C57.4795 91.202 57.2695 92.036 56.8495 92.768C56.4415 93.488 55.8715 94.058 55.1395 94.478C54.4075 94.886 53.5795 95.09 52.6555 95.09ZM52.6555 93.956C53.3395 93.956 53.9455 93.806 54.4735 93.506C55.0015 93.194 55.4155 92.762 55.7155 92.21C56.0275 91.646 56.1835 90.998 56.1835 90.266C56.1835 89.522 56.0275 88.874 55.7155 88.322C55.4155 87.77 55.0015 87.344 54.4735 87.044C53.9455 86.732 53.3455 86.576 52.6735 86.576C52.0015 86.576 51.4015 86.732 50.8735 87.044C50.3455 87.344 49.9255 87.77 49.6135 88.322C49.3015 88.874 49.1455 89.522 49.1455 90.266C49.1455 90.998 49.3015 91.646 49.6135 92.21C49.9255 92.762 50.3455 93.194 50.8735 93.506C51.4015 93.806 51.9955 93.956 52.6555 93.956ZM61.751 95L58.187 85.55H59.411L62.651 94.316H62.093L65.423 85.55H66.521L69.815 94.316H69.257L72.551 85.55H73.721L70.139 95H68.933L65.765 86.756H66.143L62.957 95H61.751Z" fill="black"/>
<g clip-path="url(#clip0_873_912)">
<path d="M4.53677 27.9365C4.53677 27.9365 -0.914845 24.244 0.133829 -1.06845e-05C22.2601 -0.0441442 30.0396 13.0415 30.0396 13.0415C37.0828 7.87047 51.4445 7.51005 58.629 12.7031C66.1705 3.3762 76.4416 -1.58146 89.3752 0.456036C92.0899 19.2643 85.0987 28.753 85.0987 28.753C85.0987 28.753 91.4949 59.161 59.1719 65.1852C41.9915 67.8259 28.1505 64.7218 28.1505 64.7218C28.1505 64.7218 0.810632 63.773 4.53677 27.9439V27.9365Z" fill="#FCDE89"/>
<path d="M9.1257 54.3357C12.4948 33.3722 27.3696 25.3841 44.8847 43.979C61.7379 25.4576 79.6472 34.6668 81.4916 52.1216C75.4153 64.6335 57.5953 66.3988 46.8854 66.362C35.4839 66.3253 15.9979 66.671 9.1257 54.3283V54.3357Z" fill="#FAEBB0"/>
<path d="M62.1841 45.7223C64.3858 45.7223 66.1706 43.7859 66.1706 41.3972C66.1706 39.0085 64.3858 37.0721 62.1841 37.0721C59.9825 37.0721 58.1977 39.0085 58.1977 41.3972C58.1977 43.7859 59.9825 45.7223 62.1841 45.7223Z" fill="black"/>
<path d="M27.5928 45.7223C29.7944 45.7223 31.5792 43.7859 31.5792 41.3972C31.5792 39.0085 29.7944 37.0721 27.5928 37.0721C25.3911 37.0721 23.6063 39.0085 23.6063 41.3972C23.6063 43.7859 25.3911 45.7223 27.5928 45.7223Z" fill="#020202"/>
<path d="M44.8847 46.5167C46.2156 46.5167 47.2944 45.6144 47.2944 44.5013C47.2944 43.3882 46.2156 42.4858 44.8847 42.4858C43.5539 42.4858 42.475 43.3882 42.475 44.5013C42.475 45.6144 43.5539 46.5167 44.8847 46.5167Z" fill="black"/>
<path d="M44.7955 46.3328L44.907 49.7678C44.907 49.7678 49.719 53.5265 53.0659 49.7678" stroke="#565656" stroke-width="1.47112" stroke-miterlimit="10"/>
<path d="M44.7434 46.3328L44.8475 49.7678C44.8475 49.7678 40.281 53.8208 36.7036 50.268" stroke="#565656" stroke-width="1.47112" stroke-miterlimit="10"/>
</g>
<defs>
<clipPath id="clip0_873_912">
<rect width="90" height="66.3621" fill="white"/>
</clipPath>
</defs>
</svg>
