<svg width="90" height="100" viewBox="0 0 90 100" fill="none" xmlns="http://www.w3.org/2000/svg">
<path d="M26.3713 95V82.4H31.8073C33.2113 82.4 34.2973 82.682 35.0653 83.246C35.8453 83.81 36.2353 84.608 36.2353 85.64C36.2353 86.324 36.0733 86.9 35.7493 87.368C35.4373 87.836 35.0053 88.19 34.4533 88.43C33.9133 88.67 33.3193 88.79 32.6713 88.79L32.9773 88.358C33.7813 88.358 34.4713 88.484 35.0473 88.736C35.6353 88.976 36.0913 89.342 36.4153 89.834C36.7393 90.314 36.9013 90.914 36.9013 91.634C36.9013 92.702 36.5053 93.53 35.7133 94.118C34.9333 94.706 33.7513 95 32.1673 95H26.3713ZM27.7033 93.902H32.1493C33.2533 93.902 34.0993 93.716 34.6873 93.344C35.2753 92.96 35.5693 92.354 35.5693 91.526C35.5693 90.71 35.2753 90.116 34.6873 89.744C34.0993 89.36 33.2533 89.168 32.1493 89.168H27.5593V88.07H31.7173C32.7253 88.07 33.5053 87.878 34.0573 87.494C34.6213 87.11 34.9033 86.54 34.9033 85.784C34.9033 85.016 34.6213 84.446 34.0573 84.074C33.5053 83.69 32.7253 83.498 31.7173 83.498H27.7033V93.902ZM39.6716 95V81.644H40.9496V95H39.6716ZM48.4116 95.09C47.6076 95.09 46.9056 94.94 46.3056 94.64C45.7056 94.34 45.2376 93.89 44.9016 93.29C44.5776 92.69 44.4156 91.94 44.4156 91.04V85.55H45.6936V90.896C45.6936 91.904 45.9396 92.666 46.4316 93.182C46.9356 93.686 47.6376 93.938 48.5376 93.938C49.1976 93.938 49.7676 93.806 50.2476 93.542C50.7396 93.266 51.1116 92.87 51.3636 92.354C51.6276 91.838 51.7596 91.22 51.7596 90.5V85.55H53.0376V95H51.8136V92.408L52.0116 92.876C51.7116 93.572 51.2436 94.118 50.6076 94.514C49.9836 94.898 49.2516 95.09 48.4116 95.09ZM60.6134 95.09C59.6294 95.09 58.7654 94.886 58.0214 94.478C57.2774 94.058 56.6954 93.488 56.2754 92.768C55.8554 92.036 55.6454 91.202 55.6454 90.266C55.6454 89.33 55.8434 88.502 56.2394 87.782C56.6474 87.062 57.1994 86.498 57.8954 86.09C58.6034 85.67 59.3954 85.46 60.2714 85.46C61.1594 85.46 61.9454 85.664 62.6294 86.072C63.3254 86.468 63.8714 87.032 64.2674 87.764C64.6634 88.484 64.8614 89.318 64.8614 90.266C64.8614 90.326 64.8554 90.392 64.8434 90.464C64.8434 90.524 64.8434 90.59 64.8434 90.662H56.6174V89.708H64.1594L63.6554 90.086C63.6554 89.402 63.5054 88.796 63.2054 88.268C62.9174 87.728 62.5214 87.308 62.0174 87.008C61.5134 86.708 60.9314 86.558 60.2714 86.558C59.6234 86.558 59.0414 86.708 58.5254 87.008C58.0094 87.308 57.6074 87.728 57.3194 88.268C57.0314 88.808 56.8874 89.426 56.8874 90.122V90.32C56.8874 91.04 57.0434 91.676 57.3554 92.228C57.6794 92.768 58.1234 93.194 58.6874 93.506C59.2634 93.806 59.9174 93.956 60.6494 93.956C61.2254 93.956 61.7594 93.854 62.2514 93.65C62.7554 93.446 63.1874 93.134 63.5474 92.714L64.2674 93.542C63.8474 94.046 63.3194 94.43 62.6834 94.694C62.0594 94.958 61.3694 95.09 60.6134 95.09Z" fill="black"/>
<g clip-path="url(#clip0_873_914)">
<path d="M4.53677 28.2472C4.53677 28.2472 -0.914845 24.5137 0.133829 -9.44564e-06C22.2601 -0.0446339 30.0396 13.1865 30.0396 13.1865C37.0828 7.95801 51.4445 7.59358 58.629 12.8444C66.1705 3.41376 76.4416 -1.59905 89.3752 0.46111C92.0899 19.4785 85.0987 29.0728 85.0987 29.0728C85.0987 29.0728 91.4949 59.819 59.1719 65.9103C41.9915 68.5803 28.1505 65.4417 28.1505 65.4417C28.1505 65.4417 0.810632 64.4823 4.53677 28.2547V28.2472Z" fill="#ABD9E8"/>
<path d="M9.1257 54.9401C12.4948 33.7435 27.3696 25.6665 44.8847 44.4682C61.7379 25.7408 79.6472 35.0525 81.4916 52.7014C75.4153 65.3524 57.5953 67.1374 46.8854 67.1002C35.4839 67.063 15.9979 67.4126 9.1257 54.9326V54.9401Z" fill="#FAEBB0"/>
<path d="M62.1841 46.2309C64.3858 46.2309 66.1706 44.2729 66.1706 41.8577C66.1706 39.4424 64.3858 37.4845 62.1841 37.4845C59.9825 37.4845 58.1977 39.4424 58.1977 41.8577C58.1977 44.2729 59.9825 46.2309 62.1841 46.2309Z" fill="black"/>
<path d="M27.5928 46.2309C29.7944 46.2309 31.5792 44.2729 31.5792 41.8577C31.5792 39.4424 29.7944 37.4845 27.5928 37.4845C25.3911 37.4845 23.6063 39.4424 23.6063 41.8577C23.6063 44.2729 25.3911 46.2309 27.5928 46.2309Z" fill="#020202"/>
<path d="M44.8847 47.0342C46.2156 47.0342 47.2944 46.1218 47.2944 44.9963C47.2944 43.8709 46.2156 42.9585 44.8847 42.9585C43.5539 42.9585 42.475 43.8709 42.475 44.9963C42.475 46.1218 43.5539 47.0342 44.8847 47.0342Z" fill="black"/>
<path d="M44.7955 46.8481L44.907 50.3214C44.907 50.3214 49.719 54.1219 53.0659 50.3214" stroke="#565656" stroke-width="2" stroke-miterlimit="10"/>
<path d="M44.7434 46.8481L44.8475 50.3214C44.8475 50.3214 40.281 54.4194 36.7036 50.8272" stroke="#565656" stroke-width="2" stroke-miterlimit="10"/>
</g>
<defs>
<clipPath id="clip0_873_914">
<rect width="90" height="67.1002" fill="white"/>
</clipPath>
</defs>
</svg>
