<svg width="90" height="100" viewBox="0 0 90 100" fill="none" xmlns="http://www.w3.org/2000/svg">
<path d="M25.6737 95.108C24.7137 95.108 23.8257 94.952 23.0097 94.64C22.2057 94.316 21.5037 93.866 20.9037 93.29C20.3157 92.714 19.8537 92.036 19.5177 91.256C19.1937 90.476 19.0317 89.624 19.0317 88.7C19.0317 87.776 19.1937 86.924 19.5177 86.144C19.8537 85.364 20.3217 84.686 20.9217 84.11C21.5217 83.534 22.2237 83.09 23.0277 82.778C23.8437 82.454 24.7317 82.292 25.6917 82.292C26.6517 82.292 27.5277 82.442 28.3197 82.742C29.1237 83.042 29.8077 83.498 30.3717 84.11L29.5437 84.956C29.0157 84.428 28.4337 84.05 27.7977 83.822C27.1617 83.594 26.4777 83.48 25.7457 83.48C24.9657 83.48 24.2457 83.612 23.5857 83.876C22.9377 84.128 22.3677 84.494 21.8757 84.974C21.3957 85.442 21.0177 85.994 20.7417 86.63C20.4777 87.254 20.3457 87.944 20.3457 88.7C20.3457 89.444 20.4777 90.134 20.7417 90.77C21.0177 91.406 21.3957 91.964 21.8757 92.444C22.3677 92.912 22.9377 93.278 23.5857 93.542C24.2457 93.794 24.9597 93.92 25.7277 93.92C26.4477 93.92 27.1257 93.812 27.7617 93.596C28.4097 93.38 29.0037 93.014 29.5437 92.498L30.2997 93.506C29.6997 94.034 28.9977 94.436 28.1937 94.712C27.3897 94.976 26.5497 95.108 25.6737 95.108ZM29.0217 93.344V88.7H30.2997V93.506L29.0217 93.344ZM33.7996 95V85.55H35.0236V88.124L34.8976 87.674C35.1616 86.954 35.6056 86.408 36.2296 86.036C36.8536 85.652 37.6276 85.46 38.5516 85.46V86.702C38.5036 86.702 38.4556 86.702 38.4076 86.702C38.3596 86.69 38.3116 86.684 38.2636 86.684C37.2676 86.684 36.4876 86.99 35.9236 87.602C35.3596 88.202 35.0776 89.06 35.0776 90.176V95H33.7996ZM44.8097 95.09C43.8257 95.09 42.9617 94.886 42.2177 94.478C41.4737 94.058 40.8917 93.488 40.4717 92.768C40.0517 92.036 39.8417 91.202 39.8417 90.266C39.8417 89.33 40.0397 88.502 40.4357 87.782C40.8437 87.062 41.3957 86.498 42.0917 86.09C42.7997 85.67 43.5917 85.46 44.4677 85.46C45.3557 85.46 46.1417 85.664 46.8257 86.072C47.5217 86.468 48.0677 87.032 48.4637 87.764C48.8597 88.484 49.0577 89.318 49.0577 90.266C49.0577 90.326 49.0517 90.392 49.0397 90.464C49.0397 90.524 49.0397 90.59 49.0397 90.662H40.8137V89.708H48.3557L47.8517 90.086C47.8517 89.402 47.7017 88.796 47.4017 88.268C47.1137 87.728 46.7177 87.308 46.2137 87.008C45.7097 86.708 45.1277 86.558 44.4677 86.558C43.8197 86.558 43.2377 86.708 42.7217 87.008C42.2057 87.308 41.8037 87.728 41.5157 88.268C41.2277 88.808 41.0837 89.426 41.0837 90.122V90.32C41.0837 91.04 41.2397 91.676 41.5517 92.228C41.8757 92.768 42.3197 93.194 42.8837 93.506C43.4597 93.806 44.1137 93.956 44.8457 93.956C45.4217 93.956 45.9557 93.854 46.4477 93.65C46.9517 93.446 47.3837 93.134 47.7437 92.714L48.4637 93.542C48.0437 94.046 47.5157 94.43 46.8797 94.694C46.2557 94.958 45.5657 95.09 44.8097 95.09ZM55.673 95.09C54.689 95.09 53.825 94.886 53.081 94.478C52.337 94.058 51.755 93.488 51.335 92.768C50.915 92.036 50.705 91.202 50.705 90.266C50.705 89.33 50.903 88.502 51.299 87.782C51.707 87.062 52.259 86.498 52.955 86.09C53.663 85.67 54.455 85.46 55.331 85.46C56.219 85.46 57.005 85.664 57.689 86.072C58.385 86.468 58.931 87.032 59.327 87.764C59.723 88.484 59.921 89.318 59.921 90.266C59.921 90.326 59.915 90.392 59.903 90.464C59.903 90.524 59.903 90.59 59.903 90.662H51.677V89.708H59.219L58.715 90.086C58.715 89.402 58.565 88.796 58.265 88.268C57.977 87.728 57.581 87.308 57.077 87.008C56.573 86.708 55.991 86.558 55.331 86.558C54.683 86.558 54.101 86.708 53.585 87.008C53.069 87.308 52.667 87.728 52.379 88.268C52.091 88.808 51.947 89.426 51.947 90.122V90.32C51.947 91.04 52.103 91.676 52.415 92.228C52.739 92.768 53.183 93.194 53.747 93.506C54.323 93.806 54.977 93.956 55.709 93.956C56.285 93.956 56.819 93.854 57.311 93.65C57.815 93.446 58.247 93.134 58.607 92.714L59.327 93.542C58.907 94.046 58.379 94.43 57.743 94.694C57.119 94.958 56.429 95.09 55.673 95.09ZM67.3462 85.46C68.1142 85.46 68.7862 85.61 69.3622 85.91C69.9502 86.198 70.4062 86.642 70.7302 87.242C71.0662 87.842 71.2342 88.598 71.2342 89.51V95H69.9562V89.636C69.9562 88.64 69.7042 87.89 69.2002 87.386C68.7082 86.87 68.0122 86.612 67.1122 86.612C66.4402 86.612 65.8522 86.75 65.3482 87.026C64.8562 87.29 64.4722 87.68 64.1962 88.196C63.9322 88.7 63.8002 89.312 63.8002 90.032V95H62.5222V85.55H63.7462V88.142L63.5482 87.656C63.8482 86.972 64.3282 86.438 64.9882 86.054C65.6482 85.658 66.4342 85.46 67.3462 85.46Z" fill="black"/>
<g clip-path="url(#clip0_873_913)">
<path d="M4.53678 28.2472C4.53678 28.2472 -0.914837 24.5137 0.133836 -9.44564e-06C22.2601 -0.0446339 30.0396 13.1865 30.0396 13.1865C37.0828 7.95801 51.4445 7.59358 58.629 12.8444C66.1705 3.41376 76.4416 -1.59905 89.3752 0.46111C92.0899 19.4785 85.0987 29.0728 85.0987 29.0728C85.0987 29.0728 91.4949 59.819 59.1719 65.9103C41.9915 68.5803 28.1505 65.4417 28.1505 65.4417C28.1505 65.4417 0.810639 64.4823 4.53678 28.2547V28.2472Z" fill="#ADE2A0"/>
<path d="M9.12569 54.9401C12.4948 33.7435 27.3696 25.6665 44.8847 44.4682C61.7379 25.7408 79.6471 35.0525 81.4916 52.7014C75.4153 65.3524 57.5952 67.1374 46.8854 67.1002C35.4838 67.063 15.9979 67.4126 9.12569 54.9326V54.9401Z" fill="#FAEBB0"/>
<path d="M62.1841 46.2309C64.3858 46.2309 66.1706 44.2729 66.1706 41.8577C66.1706 39.4424 64.3858 37.4845 62.1841 37.4845C59.9825 37.4845 58.1977 39.4424 58.1977 41.8577C58.1977 44.2729 59.9825 46.2309 62.1841 46.2309Z" fill="black"/>
<path d="M27.5928 46.2309C29.7944 46.2309 31.5792 44.2729 31.5792 41.8577C31.5792 39.4424 29.7944 37.4845 27.5928 37.4845C25.3911 37.4845 23.6063 39.4424 23.6063 41.8577C23.6063 44.2729 25.3911 46.2309 27.5928 46.2309Z" fill="#020202"/>
<path d="M44.8847 47.0342C46.2156 47.0342 47.2944 46.1218 47.2944 44.9963C47.2944 43.8709 46.2156 42.9585 44.8847 42.9585C43.5539 42.9585 42.475 43.8709 42.475 44.9963C42.475 46.1218 43.5539 47.0342 44.8847 47.0342Z" fill="black"/>
<path d="M44.7955 46.8481L44.907 50.3214C44.907 50.3214 49.719 54.1219 53.0659 50.3214" stroke="#565656" stroke-width="2" stroke-miterlimit="10"/>
<path d="M44.7434 46.8481L44.8475 50.3214C44.8475 50.3214 40.281 54.4194 36.7036 50.8272" stroke="#565656" stroke-width="2" stroke-miterlimit="10"/>
</g>
<defs>
<clipPath id="clip0_873_913">
<rect width="90" height="67.1002" fill="white"/>
</clipPath>
</defs>
</svg>
