<svg width="90" height="100" viewBox="0 0 90 100" fill="none" xmlns="http://www.w3.org/2000/svg">
<path d="M28.5168 95V82.4H33.2328C34.3008 82.4 35.2188 82.574 35.9868 82.922C36.7548 83.258 37.3428 83.75 37.7508 84.398C38.1708 85.034 38.3808 85.808 38.3808 86.72C38.3808 87.608 38.1708 88.376 37.7508 89.024C37.3428 89.66 36.7548 90.152 35.9868 90.5C35.2188 90.836 34.3008 91.004 33.2328 91.004H29.2548L29.8488 90.392V95H28.5168ZM37.1208 95L33.8808 90.428H35.3208L38.5788 95H37.1208ZM29.8488 90.5L29.2548 89.87H33.1968C34.4568 89.87 35.4108 89.594 36.0588 89.042C36.7188 88.49 37.0488 87.716 37.0488 86.72C37.0488 85.712 36.7188 84.932 36.0588 84.38C35.4108 83.828 34.4568 83.552 33.1968 83.552H29.2548L29.8488 82.922V90.5ZM45.2687 95.09C44.2847 95.09 43.4207 94.886 42.6767 94.478C41.9327 94.058 41.3507 93.488 40.9307 92.768C40.5107 92.036 40.3007 91.202 40.3007 90.266C40.3007 89.33 40.4987 88.502 40.8947 87.782C41.3027 87.062 41.8547 86.498 42.5507 86.09C43.2587 85.67 44.0507 85.46 44.9267 85.46C45.8147 85.46 46.6007 85.664 47.2847 86.072C47.9807 86.468 48.5267 87.032 48.9227 87.764C49.3187 88.484 49.5167 89.318 49.5167 90.266C49.5167 90.326 49.5107 90.392 49.4987 90.464C49.4987 90.524 49.4987 90.59 49.4987 90.662H41.2727V89.708H48.8147L48.3107 90.086C48.3107 89.402 48.1607 88.796 47.8607 88.268C47.5727 87.728 47.1767 87.308 46.6727 87.008C46.1687 86.708 45.5867 86.558 44.9267 86.558C44.2787 86.558 43.6967 86.708 43.1807 87.008C42.6647 87.308 42.2627 87.728 41.9747 88.268C41.6867 88.808 41.5427 89.426 41.5427 90.122V90.32C41.5427 91.04 41.6987 91.676 42.0107 92.228C42.3347 92.768 42.7787 93.194 43.3427 93.506C43.9187 93.806 44.5727 93.956 45.3047 93.956C45.8807 93.956 46.4147 93.854 46.9067 93.65C47.4107 93.446 47.8427 93.134 48.2027 92.714L48.9227 93.542C48.5027 94.046 47.9747 94.43 47.3387 94.694C46.7147 94.958 46.0247 95.09 45.2687 95.09ZM55.8799 95.09C54.9799 95.09 54.1699 94.886 53.4499 94.478C52.7419 94.07 52.1839 93.506 51.7759 92.786C51.3679 92.054 51.1639 91.214 51.1639 90.266C51.1639 89.306 51.3679 88.466 51.7759 87.746C52.1839 87.026 52.7419 86.468 53.4499 86.072C54.1699 85.664 54.9799 85.46 55.8799 85.46C56.7079 85.46 57.4459 85.646 58.0939 86.018C58.7539 86.39 59.2759 86.936 59.6599 87.656C60.0559 88.364 60.2539 89.234 60.2539 90.266C60.2539 91.286 60.0619 92.156 59.6779 92.876C59.2939 93.596 58.7719 94.148 58.1119 94.532C57.4639 94.904 56.7199 95.09 55.8799 95.09ZM55.9699 93.956C56.6419 93.956 57.2419 93.806 57.7699 93.506C58.3099 93.194 58.7299 92.762 59.0299 92.21C59.3419 91.646 59.4979 90.998 59.4979 90.266C59.4979 89.522 59.3419 88.874 59.0299 88.322C58.7299 87.77 58.3099 87.344 57.7699 87.044C57.2419 86.732 56.6419 86.576 55.9699 86.576C55.3099 86.576 54.7159 86.732 54.1879 87.044C53.6599 87.344 53.2399 87.77 52.9279 88.322C52.6159 88.874 52.4599 89.522 52.4599 90.266C52.4599 90.998 52.6159 91.646 52.9279 92.21C53.2399 92.762 53.6599 93.194 54.1879 93.506C54.7159 93.806 55.3099 93.956 55.9699 93.956ZM59.5339 95V92.156L59.6599 90.248L59.4799 88.34V81.644H60.7579V95H59.5339Z" fill="black"/>
<g clip-path="url(#clip0_873_911)">
<path d="M4.53677 28.2472C4.53677 28.2472 -0.914845 24.5137 0.133829 -9.44564e-06C22.2601 -0.0446339 30.0396 13.1865 30.0396 13.1865C37.0828 7.95801 51.4445 7.59358 58.629 12.8444C66.1705 3.41376 76.4416 -1.59905 89.3752 0.46111C92.0899 19.4785 85.0987 29.0728 85.0987 29.0728C85.0987 29.0728 91.4949 59.819 59.1719 65.9103C41.9915 68.5803 28.1505 65.4417 28.1505 65.4417C28.1505 65.4417 0.810632 64.4823 4.53677 28.2547V28.2472Z" fill="#FB9191"/>
<path d="M9.1257 54.9401C12.4948 33.7435 27.3696 25.6665 44.8847 44.4682C61.7379 25.7408 79.6472 35.0525 81.4916 52.7014C75.4153 65.3524 57.5953 67.1374 46.8854 67.1002C35.4839 67.063 15.9979 67.4126 9.1257 54.9326V54.9401Z" fill="#FAEBB0"/>
<path d="M62.1841 46.2309C64.3858 46.2309 66.1706 44.2729 66.1706 41.8577C66.1706 39.4424 64.3858 37.4845 62.1841 37.4845C59.9825 37.4845 58.1977 39.4424 58.1977 41.8577C58.1977 44.2729 59.9825 46.2309 62.1841 46.2309Z" fill="black"/>
<path d="M27.5928 46.2309C29.7944 46.2309 31.5792 44.2729 31.5792 41.8577C31.5792 39.4424 29.7944 37.4845 27.5928 37.4845C25.3911 37.4845 23.6063 39.4424 23.6063 41.8577C23.6063 44.2729 25.3911 46.2309 27.5928 46.2309Z" fill="#020202"/>
<path d="M44.8847 47.0342C46.2156 47.0342 47.2944 46.1218 47.2944 44.9963C47.2944 43.8709 46.2156 42.9585 44.8847 42.9585C43.5539 42.9585 42.475 43.8709 42.475 44.9963C42.475 46.1218 43.5539 47.0342 44.8847 47.0342Z" fill="black"/>
<path d="M44.7955 46.8481L44.907 50.3214C44.907 50.3214 49.719 54.1219 53.0659 50.3214" stroke="#565656" stroke-width="2" stroke-miterlimit="10"/>
<path d="M44.7434 46.8481L44.8475 50.3214C44.8475 50.3214 40.281 54.4194 36.7036 50.8272" stroke="#565656" stroke-width="2" stroke-miterlimit="10"/>
</g>
<defs>
<clipPath id="clip0_873_911">
<rect width="90" height="67.1002" fill="white"/>
</clipPath>
</defs>
</svg>
